<?xml version="1.0" encoding="UTF-8"?>
<svg id="Layer_1" data-name="Layer 1" xmlns="http://www.w3.org/2000/svg" xmlns:xlink="http://www.w3.org/1999/xlink" viewBox="0 0 1808.32 326.1">
  <defs>
    <style>
      .cls-1 {
        letter-spacing: -.01em;
      }

      .cls-2 {
        letter-spacing: -.01em;
      }

      .cls-3 {
        clip-path: url(#clippath);
      }

      .cls-4 {
        font-family: SofiaPro-Bold, 'Sofia Pro';
        font-size: 175px;
        font-weight: 700;
      }
    </style>
    <clipPath id="clippath">
      <path d="M336.39,44.04c-66.94-3.27-103.7-11.41-163.46-44.04C113.18,32.64,76.42,40.77,9.48,44.04,0,175.2,49.11,272.56,172.93,326.1c123.82-53.54,172.93-150.9,163.46-282.05M172.93,28.36c43.16,23.57,91.1,37.07,140.22,39.47L68.15,209.29c-4.1-6.5-7.88-13.2-11.33-20.08l174.77-93.12-189.97,54.59c-7.77-26.34-10.96-54.33-8.9-82.84,49.12-2.4,97.06-15.89,140.22-39.47ZM313.15,67.83c7.16,99.03-49.09,191.75-140.22,231.15l93.45-160.52-131.12,139.95c-6.5-4.37-12.74-9.04-18.71-13.99l196.59-196.59Z"/>
    </clipPath>
  </defs>
  <g>
    <path d="M336.39,44.04c-66.94-3.27-103.7-11.41-163.46-44.04C113.18,32.64,76.42,40.77,9.48,44.04,0,175.2,49.11,272.56,172.93,326.1c123.82-53.54,172.93-150.9,163.46-282.05M172.93,28.36c43.16,23.57,91.1,37.07,140.22,39.47L68.15,209.29c-4.1-6.5-7.88-13.2-11.33-20.08l174.77-93.12-189.97,54.59c-7.77-26.34-10.96-54.33-8.9-82.84,49.12-2.4,97.06-15.89,140.22-39.47ZM313.15,67.83c7.16,99.03-49.09,191.75-140.22,231.15l93.45-160.52-131.12,139.95c-6.5-4.37-12.74-9.04-18.71-13.99l196.59-196.59Z"/>
    <g class="cls-3">
      <rect width="345.87" height="326.1"/>
    </g>
  </g>
  <text class="cls-4" transform="translate(377.02 214.19)"><tspan x="0" y="0">SENTINE</tspan><tspan class="cls-2" x="692.99" y="0">L</tspan><tspan x="778.74" y="0">S</tspan><tspan class="cls-1" x="880.59" y="0">E</tspan><tspan x="978.41" y="0">CURE</tspan></text>
</svg>