<?xml version="1.0" encoding="UTF-8"?>
<svg id="Layer_1" data-name="Layer 1" xmlns="http://www.w3.org/2000/svg" xmlns:xlink="http://www.w3.org/1999/xlink" viewBox="0 0 1349.96 533.49">
  <defs>
    <style>
      .cls-1 {
        fill: url(#New_Gradient_Swatch_1-2);
      }

      .cls-2 {
        fill: url(#linear-gradient);
      }

      .cls-3 {
        clip-rule: evenodd;
      }

      .cls-3, .cls-4 {
        fill: url(#New_Gradient_Swatch_1);
      }

      .cls-4 {
        fill-rule: evenodd;
      }

      .cls-5 {
        clip-path: url(#clippath);
      }
    </style>
    <linearGradient id="linear-gradient" x1="608.06" y1="258.36" x2="1284.13" y2="258.36" gradientUnits="userSpaceOnUse">
      <stop offset="0" stop-color="#9333ea"/>
      <stop offset="1" stop-color="#831843"/>
    </linearGradient>
    <linearGradient id="New_Gradient_Swatch_1" data-name="New Gradient Swatch 1" x1="13.64" y1="266.74" x2="552.19" y2="266.74" gradientUnits="userSpaceOnUse">
      <stop offset="0" stop-color="#9333ea"/>
      <stop offset=".25" stop-color="#8b5cf6"/>
      <stop offset=".5" stop-color="#581c87"/>
      <stop offset=".75" stop-color="#701a75"/>
      <stop offset="1" stop-color="#831843"/>
    </linearGradient>
    <clipPath id="clippath">
      <path class="cls-3" d="M550.32,72.06c-109.52-5.35-169.65-18.67-267.41-72.06C185.15,53.39,125.02,66.7,15.5,72.06,0,286.62,80.34,445.89,282.91,533.49c202.57-87.6,282.91-246.87,267.41-461.43M282.91,46.4c70.61,38.57,149.03,60.64,229.39,64.57L111.48,342.38c-6.71-10.64-12.9-21.6-18.53-32.85l285.92-152.35L68.09,246.49c-12.71-43.09-17.94-88.88-14.57-135.52,80.36-3.93,158.78-26,229.39-64.57ZM512.31,110.97c11.71,162-80.31,313.69-229.39,378.15l152.89-262.61-214.5,228.96c-10.63-7.15-20.84-14.79-30.61-22.89L512.31,110.97Z"/>
    </clipPath>
    <linearGradient id="New_Gradient_Swatch_1-2" data-name="New Gradient Swatch 1" x1="274.73" y1="522.24" x2="291.45" y2=".26" xlink:href="#New_Gradient_Swatch_1"/>
  </defs>
  <g>
    <path class="cls-2" d="M608.06,209.55h22.31c.16,7.86,7.86,14.44,18.13,14.44s16.53-5.46,16.53-13.32c0-6.1-4.49-10.43-13.96-13.32l-13.48-3.85c-24.23-6.42-28.57-21.02-28.57-30.97,0-19.74,17.01-33.38,38.19-33.38s36.91,12.68,36.91,33.7h-22.31c0-7.86-5.46-13.96-15.08-13.96-8.67,0-15.25,5.78-15.25,13.16,0,2.73.8,8.35,12.36,11.71l12.36,3.53c16.69,4.97,31.29,13.48,31.29,32.26,0,21.99-18.78,34.02-39.64,34.02-23.59,0-39.8-14.6-39.8-34.02Z"/>
    <path class="cls-2" d="M735.16,221.91h48.46v19.74h-70.77v-110.57h69.33v19.74h-47.02v26.32h41.24v20.06h-41.24v24.71Z"/>
    <path class="cls-2" d="M870.28,131.08h22.31v110.57h-20.06l-40.12-69.33v69.33h-22.31v-110.57h20.7l39.48,68.52v-68.52Z"/>
    <path class="cls-2" d="M997.71,131.08v19.74h-30.49v90.83h-22.31v-90.83h-30.49v-19.74h83.29Z"/>
    <path class="cls-2" d="M1019.53,241.64v-110.57h22.31v110.57h-22.31Z"/>
    <path class="cls-2" d="M1134.11,131.08h22.31v110.57h-20.06l-40.12-69.33v69.33h-22.31v-110.57h20.7l39.48,68.52v-68.52Z"/>
    <path class="cls-2" d="M1210.83,221.91h48.46v19.74h-70.77v-110.57h69.33v19.74h-47.02v26.32h41.24v20.06h-41.24v24.71Z"/>
    <path class="cls-2" d="M1308.08,221.91h41.88v19.74h-64.19v-110.57h22.31v90.83Z"/>
    <path class="cls-2" d="M608.06,353.55h22.31c.16,7.86,7.86,14.44,18.13,14.44s16.53-5.46,16.53-13.32c0-6.1-4.49-10.43-13.96-13.32l-13.48-3.85c-24.23-6.42-28.57-21.02-28.57-30.97,0-19.74,17.01-33.38,38.19-33.38s36.91,12.68,36.91,33.7h-22.31c0-7.86-5.46-13.96-15.08-13.96-8.67,0-15.25,5.78-15.25,13.16,0,2.73.8,8.34,12.36,11.71l12.36,3.53c16.69,4.98,31.29,13.48,31.29,32.26,0,21.99-18.78,34.02-39.64,34.02-23.59,0-39.8-14.6-39.8-34.02Z"/>
    <path class="cls-2" d="M735.16,365.91h48.46v19.74h-70.77v-110.57h69.33v19.74h-47.02v26.32h41.24v20.06h-41.24v24.71Z"/>
    <path class="cls-2" d="M800.96,330.28c0-31.13,24.87-57.13,56.17-57.13,18.78,0,35.14,8.99,45.09,22.95l-17.01,12.36c-6.26-8.83-15.57-14.28-27.28-14.28-20.06,0-34.66,16.37-34.66,36.11s14.44,36.27,34.5,36.27c11.88,0,21.18-5.46,27.44-14.28l17.01,12.36c-9.95,13.96-26.32,22.95-45.09,22.95-31.29,0-56.17-25.84-56.17-57.29Z"/>
    <path class="cls-2" d="M923.89,346.65v-71.57h22.31v70.13c0,15.08,9.63,21.18,19.9,21.18s20.06-6.1,20.06-21.18v-70.13h22.31v71.57c0,25.36-19.74,40.92-42.37,40.92s-42.21-15.57-42.21-40.92Z"/>
    <path class="cls-2" d="M1095.44,385.64l-26.32-39.64h-7.54v39.64h-22.31v-110.57h44.13c25.35,0,36.27,17.97,36.27,36.11,0,15.73-11.07,31.13-26.64,33.86l28.57,40.6h-26.16ZM1061.58,294.81v33.22h17.81c12.52,0,17.81-7.54,17.81-16.37s-5.62-16.85-16.05-16.85h-19.58Z"/>
    <path class="cls-2" d="M1168.62,365.91h48.46v19.74h-70.77v-110.57h69.33v19.74h-47.02v26.32h41.24v20.06h-41.24v24.71Z"/>
  </g>
  <g>
    <path class="cls-4" d="M550.32,72.06c-109.52-5.35-169.65-18.67-267.41-72.06C185.15,53.39,125.02,66.7,15.5,72.06,0,286.62,80.34,445.89,282.91,533.49c202.57-87.6,282.91-246.87,267.41-461.43M282.91,46.4c70.61,38.57,149.03,60.64,229.39,64.57L111.48,342.38c-6.71-10.64-12.9-21.6-18.53-32.85l285.92-152.35L68.09,246.49c-12.71-43.09-17.94-88.88-14.57-135.52,80.36-3.93,158.78-26,229.39-64.57ZM512.31,110.97c11.71,162-80.31,313.69-229.39,378.15l152.89-262.61-214.5,228.96c-10.63-7.15-20.84-14.79-30.61-22.89L512.31,110.97Z"/>
    <g class="cls-5">
      <rect class="cls-1" width="565.82" height="533.49"/>
    </g>
  </g>
</svg>