<?xml version="1.0" encoding="UTF-8"?>
<svg id="a" data-name="Layer 1" xmlns="http://www.w3.org/2000/svg" xmlns:xlink="http://www.w3.org/1999/xlink" viewBox="0 0 1808.4 326.1">
  <defs>
    <clipPath id="b">
      <path d="M336.5,44c-66.9-3.3-103.7-11.4-163.5-44C113.3,32.6,76.5,40.8,9.6,44,.1,175.2,49.2,272.6,173,326.1c123.8-53.5,172.9-150.9,163.5-282.1M173,28.4c43.2,23.6,91.1,37.1,140.2,39.5L68.3,209.3c-4.1-6.5-7.9-13.2-11.3-20.1l174.8-93.1-190,54.6c-7.8-26.3-11-54.3-8.9-82.8,49.1-2.4,97.1-15.9,140.2-39.5ZM313.3,67.8c7.2,99-49.1,191.7-140.2,231.1l93.5-160.5-131.1,140c-6.5-4.4-12.7-9-18.7-14l196.6-196.6Z"/>
    </clipPath>
    <clipPath id="c">
      <path d="M336.3,44.1C269.4,40.8,232.6,32.7,172.9,0,113.1,32.7,76.4,40.8,9.5,44.1,0,175.2,49.1,272.5,172.9,326c123.8-53.5,172.9-150.9,163.4-282M172.9,28.4c43.1,23.6,91.1,37.1,140.2,39.5L68.1,209.3c-4.1-6.5-7.9-13.2-11.3-20.1l174.7-93.1-189.9,54.6c-7.8-26.3-11-54.3-8.9-82.8,49.1-2.4,97-15.9,140.2-39.5ZM313.1,67.9c7.2,99-49.1,191.7-140.2,231.1l93.4-160.5-131.1,139.9c-6.5-4.4-12.7-9-18.7-14l196.5-196.5Z" clip-rule="evenodd" fill="#fff"/>
    </clipPath>
  </defs>
  <g>
    <path d="M336.5,44c-66.9-3.3-103.7-11.4-163.5-44C113.3,32.6,76.5,40.8,9.6,44,.1,175.2,49.2,272.6,173,326.1c123.8-53.5,172.9-150.9,163.5-282.1M173,28.4c43.2,23.6,91.1,37.1,140.2,39.5L68.3,209.3c-4.1-6.5-7.9-13.2-11.3-20.1l174.8-93.1-190,54.6c-7.8-26.3-11-54.3-8.9-82.8,49.1-2.4,97.1-15.9,140.2-39.5ZM313.3,67.8c7.2,99-49.1,191.7-140.2,231.1l93.5-160.5-131.1,140c-6.5-4.4-12.7-9-18.7-14l196.6-196.6Z"/>
    <g clip-path="url(#b)">
      <rect x=".1" width="345.9" height="326.1"/>
    </g>
  </g>
  <g>
    <path d="M385,179.2h24.3c.2,8.6,8.6,15.8,19.8,15.8s18-6,18-14.5-4.9-11.4-15.2-14.5l-14.7-4.2c-26.4-7-31.2-22.9-31.2-33.8,0-21.5,18.6-36.4,41.7-36.4s40.3,13.8,40.3,36.8h-24.3c0-8.6-5.9-15.2-16.5-15.2s-16.6,6.3-16.6,14.3.9,9.1,13.5,12.8l13.5,3.9c18.2,5.4,34.1,14.7,34.1,35.2s-20.5,37.1-43.2,37.1-43.4-15.9-43.4-37.1Z" fill="#fff"/>
    <path d="M518,192.7h52.9v21.5h-77.2v-120.6h75.6v21.5h-51.3v28.7h45v21.9h-45v27Z" fill="#fff"/>
    <path d="M659.7,93.6h24.3v120.6h-21.9l-43.8-75.6v75.6h-24.3v-120.6h22.6l43.1,74.7v-74.7Z" fill="#fff"/>
    <path d="M793.1,93.6v21.5h-33.3v99.1h-24.3v-99.1h-33.3v-21.5h90.8Z" fill="#fff"/>
    <path d="M811.3,214.2v-120.6h24.3v120.6h-24.3Z" fill="#fff"/>
    <path d="M930.6,93.6h24.3v120.6h-21.9l-43.8-75.6v75.6h-24.3v-120.6h22.6l43.1,74.7v-74.7Z" fill="#fff"/>
    <path d="M1008.7,192.7h52.9v21.5h-77.2v-120.6h75.6v21.5h-51.3v28.7h45v21.9h-45v27Z" fill="#fff"/>
    <path d="M1109.1,192.7h45.7v21.5h-70v-120.6h24.3v99.1Z" fill="#fff"/>
    <path d="M1163.7,179.2h24.3c.2,8.6,8.6,15.8,19.8,15.8s18-6,18-14.5-4.9-11.4-15.2-14.5l-14.7-4.2c-26.4-7-31.2-22.9-31.2-33.8,0-21.5,18.6-36.4,41.7-36.4s40.3,13.8,40.3,36.8h-24.3c0-8.6-6-15.2-16.5-15.2s-16.6,6.3-16.6,14.3.9,9.1,13.5,12.8l13.5,3.9c18.2,5.4,34.1,14.7,34.1,35.2s-20.5,37.1-43.2,37.1-43.4-15.9-43.4-37.1Z" fill="#fff"/>
    <path d="M1296.7,192.7h52.9v21.5h-77.2v-120.6h75.6v21.5h-51.3v28.7h45v21.9h-45v27Z" fill="#fff"/>
    <path d="M1362.9,153.8c0-34,27.1-62.3,61.3-62.3s38.3,9.8,49.2,25l-18.5,13.5c-6.8-9.6-17-15.6-29.8-15.6-21.9,0-37.8,17.9-37.8,39.4s15.8,39.6,37.6,39.6,23.1-6,29.9-15.6l18.5,13.5c-10.8,15.2-28.7,25-49.2,25-34.1,0-61.3-28.2-61.3-62.5Z" fill="#fff"/>
    <path d="M1491.3,171.7v-78.1h24.3v76.5c0,16.5,10.5,23.1,21.7,23.1s21.9-6.7,21.9-23.1v-76.5h24.3v78.1c0,27.7-21.5,44.6-46.2,44.6s-46-17-46-44.6Z" fill="#fff"/>
    <path d="M1672.8,214.2l-28.7-43.2h-8.2v43.2h-24.3v-120.6h48.1c27.7,0,39.6,19.6,39.6,39.4s-12.1,34-29.1,36.9l31.2,44.3h-28.5ZM1635.9,115.1v36.2h19.4c13.6,0,19.4-8.2,19.4-17.9s-6.1-18.4-17.5-18.4h-21.4Z" fill="#fff"/>
    <path d="M1747,192.7h52.9v21.5h-77.2v-120.6h75.6v21.5h-51.3v28.7h45v21.9h-45v27Z" fill="#fff"/>
  </g>
  <g>
    <path d="M336.3,44.1C269.4,40.8,232.6,32.7,172.9,0,113.1,32.7,76.4,40.8,9.5,44.1,0,175.2,49.1,272.5,172.9,326c123.8-53.5,172.9-150.9,163.4-282M172.9,28.4c43.1,23.6,91.1,37.1,140.2,39.5L68.1,209.3c-4.1-6.5-7.9-13.2-11.3-20.1l174.7-93.1-189.9,54.6c-7.8-26.3-11-54.3-8.9-82.8,49.1-2.4,97-15.9,140.2-39.5ZM313.1,67.9c7.2,99-49.1,191.7-140.2,231.1l93.4-160.5-131.1,139.9c-6.5-4.4-12.7-9-18.7-14l196.5-196.5Z" fill="#fff" fill-rule="evenodd"/>
    <g clip-path="url(#c)">
      <rect y="0" width="345.8" height="326" fill="#fff"/>
    </g>
  </g>
</svg>