<?xml version="1.0" encoding="UTF-8"?>
<svg id="Layer_1" data-name="Layer 1" xmlns="http://www.w3.org/2000/svg" xmlns:xlink="http://www.w3.org/1999/xlink" viewBox="0 0 1336.33 533.49">
  <defs>
    <style>
      .cls-1 {
        clip-rule: evenodd;
      }

      .cls-1, .cls-2, .cls-3, .cls-4 {
        fill: #fff;
      }

      .cls-2 {
        fill-rule: evenodd;
      }

      .cls-4 {
        font-family: SofiaPro-Bold, 'Sofia Pro';
        font-size: 160.48px;
        font-weight: 700;
      }

      .cls-5 {
        clip-path: url(#clippath);
      }

      .cls-6 {
        letter-spacing: .02em;
      }

      .cls-7 {
        letter-spacing: .03em;
      }

      .cls-8 {
        letter-spacing: .03em;
      }
    </style>
    <clipPath id="clippath">
      <path class="cls-1" d="M536.69,72.06c-109.52-5.35-169.65-18.67-267.41-72.06C171.52,53.39,111.38,66.7,1.87,72.06c-15.5,214.56,64.84,373.83,267.41,461.43,202.57-87.6,282.91-246.87,267.41-461.43M269.28,46.4c70.61,38.57,149.03,60.64,229.39,64.57L97.85,342.38c-6.71-10.64-12.9-21.6-18.53-32.85l285.92-152.35L54.45,246.49c-12.71-43.09-17.94-88.88-14.57-135.52,80.36-3.93,158.78-26,229.39-64.57ZM498.67,110.97c11.71,162-80.31,313.69-229.39,378.15l152.89-262.61-214.5,228.96c-10.63-7.15-20.84-14.79-30.61-22.89L498.67,110.97Z"/>
    </clipPath>
  </defs>
  <text class="cls-4" transform="translate(587.2 241.64)"><tspan class="cls-7" x="0" y="0">SENTINE</tspan><tspan x="671.45" y="0">L</tspan><tspan class="cls-7" x="0" y="144">S</tspan><tspan class="cls-6" x="98.53" y="144">E</tspan><tspan class="cls-8" x="193.38" y="144">CURE</tspan></text>
  <g>
    <path class="cls-2" d="M536.69,72.06c-109.52-5.35-169.65-18.67-267.41-72.06C171.52,53.39,111.38,66.7,1.87,72.06c-15.5,214.56,64.84,373.83,267.41,461.43,202.57-87.6,282.91-246.87,267.41-461.43M269.28,46.4c70.61,38.57,149.03,60.64,229.39,64.57L97.85,342.38c-6.71-10.64-12.9-21.6-18.53-32.85l285.92-152.35L54.45,246.49c-12.71-43.09-17.94-88.88-14.57-135.52,80.36-3.93,158.78-26,229.39-64.57ZM498.67,110.97c11.71,162-80.31,313.69-229.39,378.15l152.89-262.61-214.5,228.96c-10.63-7.15-20.84-14.79-30.61-22.89L498.67,110.97Z"/>
    <g class="cls-5">
      <rect class="cls-3" x="-13.64" width="565.82" height="533.49"/>
    </g>
  </g>
</svg>