<?xml version="1.0" encoding="UTF-8"?>
<svg id="Layer_1" data-name="Layer 1" xmlns="http://www.w3.org/2000/svg" xmlns:xlink="http://www.w3.org/1999/xlink" viewBox="0 0 1799.86 326.1">
  <defs>
    <style>
      .cls-1 {
        fill: url(#New_Gradient_Swatch_1-2);
      }

      .cls-2 {
        fill: url(#linear-gradient);
      }

      .cls-3 {
        clip-path: url(#clippath-1);
      }

      .cls-4 {
        clip-rule: evenodd;
      }

      .cls-4, .cls-5 {
        fill: url(#New_Gradient_Swatch_1);
      }

      .cls-5 {
        fill-rule: evenodd;
      }

      .cls-6 {
        clip-path: url(#clippath);
      }
    </style>
    <clipPath id="clippath">
      <path d="M336.5,44.04c-66.94-3.27-103.7-11.41-163.46-44.04C113.28,32.64,76.53,40.77,9.58,44.04.11,175.2,49.22,272.56,173.04,326.1c123.82-53.54,172.93-150.9,163.46-282.05M173.04,28.36c43.16,23.57,91.1,37.07,140.22,39.47L68.25,209.29c-4.1-6.5-7.88-13.2-11.33-20.08l174.77-93.12-189.97,54.59c-7.77-26.34-10.96-54.33-8.9-82.84,49.12-2.4,97.06-15.89,140.22-39.47ZM313.26,67.83c7.16,99.03-49.09,191.75-140.22,231.15l93.45-160.52-131.12,139.95c-6.5-4.37-12.74-9.04-18.71-13.99l196.59-196.59Z"/>
    </clipPath>
    <linearGradient id="linear-gradient" x1="385" y1="153.91" x2="1674.31" y2="153.91" gradientUnits="userSpaceOnUse">
      <stop offset="0" stop-color="#9333ea"/>
      <stop offset="1" stop-color="#831843"/>
    </linearGradient>
    <linearGradient id="New_Gradient_Swatch_1" data-name="New Gradient Swatch 1" x1="8.33" y1="163.05" x2="337.44" y2="163.05" gradientUnits="userSpaceOnUse">
      <stop offset="0" stop-color="#9333ea"/>
      <stop offset=".25" stop-color="#8b5cf6"/>
      <stop offset=".5" stop-color="#581c87"/>
      <stop offset=".75" stop-color="#701a75"/>
      <stop offset="1" stop-color="#831843"/>
    </linearGradient>
    <clipPath id="clippath-1">
      <path class="cls-4" d="M336.3,44.07C269.37,40.8,232.63,32.67,172.88.04,113.14,32.67,76.4,40.8,9.47,44.07,0,175.19,49.09,272.52,172.88,326.05c123.79-53.53,172.88-150.86,163.41-281.97M172.88,28.4c43.15,23.57,91.07,37.06,140.18,39.46L68.13,209.27c-4.1-6.5-7.88-13.2-11.33-20.07l174.72-93.1-189.92,54.57c-7.77-26.33-10.96-54.31-8.9-82.81,49.11-2.4,97.03-15.89,140.18-39.46ZM313.06,67.85c7.15,99-49.08,191.69-140.18,231.09l93.43-160.48-131.08,139.91c-6.49-4.37-12.73-9.04-18.7-13.99l196.54-196.54Z"/>
    </clipPath>
    <linearGradient id="New_Gradient_Swatch_1-2" data-name="New Gradient Swatch 1" x1="167.88" y1="319.18" x2="178.1" y2=".2" xlink:href="#New_Gradient_Swatch_1"/>
  </defs>
  <g>
    <path d="M336.5,44.04c-66.94-3.27-103.7-11.41-163.46-44.04C113.28,32.64,76.53,40.77,9.58,44.04.11,175.2,49.22,272.56,173.04,326.1c123.82-53.54,172.93-150.9,163.46-282.05M173.04,28.36c43.16,23.57,91.1,37.07,140.22,39.47L68.25,209.29c-4.1-6.5-7.88-13.2-11.33-20.08l174.77-93.12-189.97,54.59c-7.77-26.34-10.96-54.33-8.9-82.84,49.12-2.4,97.06-15.89,140.22-39.47ZM313.26,67.83c7.16,99.03-49.09,191.75-140.22,231.15l93.45-160.52-131.12,139.95c-6.5-4.37-12.74-9.04-18.71-13.99l196.59-196.59Z"/>
    <g class="cls-6">
      <rect x=".11" width="345.87" height="326.1"/>
    </g>
  </g>
  <g>
    <path class="cls-2" d="M385,179.19h24.33c.17,8.58,8.58,15.75,19.78,15.75s18.03-5.95,18.03-14.53c0-6.65-4.9-11.38-15.23-14.53l-14.7-4.2c-26.43-7-31.15-22.93-31.15-33.78,0-21.53,18.55-36.4,41.65-36.4s40.25,13.83,40.25,36.75h-24.33c0-8.58-5.95-15.22-16.45-15.22-9.45,0-16.62,6.3-16.62,14.35,0,2.98.88,9.1,13.48,12.78l13.48,3.85c18.2,5.42,34.13,14.7,34.13,35.17,0,23.98-20.48,37.1-43.23,37.1-25.73,0-43.4-15.92-43.4-37.1Z"/>
    <path class="cls-2" d="M518,192.67h52.85v21.53h-77.18v-120.58h75.6v21.53h-51.28v28.7h44.98v21.88h-44.98v26.95Z"/>
    <path class="cls-2" d="M659.75,93.62h24.33v120.58h-21.88l-43.75-75.6v75.6h-24.33v-120.58h22.58l43.05,74.73v-74.73Z"/>
    <path class="cls-2" d="M793.1,93.62v21.53h-33.25v99.05h-24.33v-99.05h-33.25v-21.53h90.83Z"/>
    <path class="cls-2" d="M811.29,214.19v-120.58h24.33v120.58h-24.33Z"/>
    <path class="cls-2" d="M930.64,93.62h24.33v120.58h-21.88l-43.75-75.6v75.6h-24.33v-120.58h22.58l43.05,74.73v-74.73Z"/>
    <path class="cls-2" d="M1008.69,192.67h52.85v21.53h-77.18v-120.58h75.6v21.53h-51.28v28.7h44.98v21.88h-44.98v26.95Z"/>
    <path class="cls-2" d="M1109.14,192.67h45.68v21.53h-70v-120.58h24.33v99.05Z"/>
    <path class="cls-2" d="M1163.74,179.19h24.33c.17,8.58,8.58,15.75,19.78,15.75s18.03-5.95,18.03-14.53c0-6.65-4.9-11.38-15.23-14.53l-14.7-4.2c-26.42-7-31.15-22.93-31.15-33.78,0-21.53,18.55-36.4,41.65-36.4s40.25,13.83,40.25,36.75h-24.33c0-8.58-5.95-15.22-16.45-15.22-9.45,0-16.62,6.3-16.62,14.35,0,2.98.88,9.1,13.47,12.78l13.48,3.85c18.2,5.42,34.12,14.7,34.12,35.17,0,23.98-20.47,37.1-43.23,37.1-25.73,0-43.4-15.92-43.4-37.1Z"/>
    <path class="cls-2" d="M1296.74,192.67h52.85v21.53h-77.18v-120.58h75.6v21.53h-51.28v28.7h44.98v21.88h-44.98v26.95Z"/>
    <path class="cls-2" d="M1362.89,153.82c0-33.95,27.13-62.3,61.25-62.3,20.48,0,38.33,9.8,49.18,25.03l-18.55,13.47c-6.83-9.62-16.98-15.58-29.75-15.58-21.88,0-37.8,17.85-37.8,39.38s15.75,39.55,37.62,39.55c12.95,0,23.1-5.95,29.93-15.58l18.55,13.47c-10.85,15.23-28.7,25.03-49.18,25.03-34.12,0-61.25-28.17-61.25-62.48Z"/>
    <path class="cls-2" d="M1491.33,171.67v-78.05h24.33v76.48c0,16.45,10.5,23.1,21.7,23.1s21.88-6.65,21.88-23.1v-76.48h24.33v78.05c0,27.65-21.53,44.62-46.2,44.62s-46.03-16.97-46.03-44.62Z"/>
    <path class="cls-2" d="M1672.81,214.19l-28.7-43.23h-8.23v43.23h-24.33v-120.58h48.13c27.65,0,39.55,19.6,39.55,39.38,0,17.15-12.08,33.95-29.05,36.93l31.15,44.28h-28.53ZM1635.88,115.14v36.23h19.43c13.65,0,19.42-8.22,19.42-17.85s-6.12-18.38-17.5-18.38h-21.35Z"/>
    <path class="cls-2" d="M1747.01,192.67h52.85v21.53h-77.18v-120.58h75.6v21.53h-51.28v28.7h44.98v21.88h-44.98v26.95Z"/>
  </g>
  <g>
    <path class="cls-5" d="M336.3,44.07C269.37,40.8,232.63,32.67,172.88.04,113.14,32.67,76.4,40.8,9.47,44.07,0,175.19,49.09,272.52,172.88,326.05c123.79-53.53,172.88-150.86,163.41-281.97M172.88,28.4c43.15,23.57,91.07,37.06,140.18,39.46L68.13,209.27c-4.1-6.5-7.88-13.2-11.33-20.07l174.72-93.1-189.92,54.57c-7.77-26.33-10.96-54.31-8.9-82.81,49.11-2.4,97.03-15.89,140.18-39.46ZM313.06,67.85c7.15,99-49.08,191.69-140.18,231.09l93.43-160.48-131.08,139.91c-6.49-4.37-12.73-9.04-18.7-13.99l196.54-196.54Z"/>
    <g class="cls-3">
      <rect class="cls-1" y=".04" width="345.77" height="326.01"/>
    </g>
  </g>
</svg>